<mxfile host="app.diagrams.net" agent="Mozilla/5.0 (Macintosh; Intel Mac OS X 10_15_7) AppleWebKit/537.36 (KHTML, like Gecko) Chrome/133.0.0.0 Safari/537.36" version="26.0.15">
  <diagram name="Page-1" id="-abTtKmIUcCCkdnvZCq9">
    <mxGraphModel dx="671" dy="485" grid="1" gridSize="9" guides="1" tooltips="1" connect="1" arrows="1" fold="1" page="1" pageScale="1" pageWidth="583" pageHeight="394" background="none" math="0" shadow="0">
      <root>
        <mxCell id="0" />
        <mxCell id="1" parent="0" />
        <mxCell id="OwIQeiL42ccPH_tx5tmu-6" value="" style="rounded=0;whiteSpace=wrap;html=1;labelBackgroundColor=none;labelBorderColor=none;fillColor=none;glass=0;" vertex="1" parent="1">
          <mxGeometry width="582.6759999999999" height="393.7" as="geometry" />
        </mxCell>
        <mxCell id="OwIQeiL42ccPH_tx5tmu-2" value="&lt;font data-font-src=&quot;https://fonts.googleapis.com/css2?family=Barlow:wght@600&amp;amp;display=swap&quot; face=&quot;Barlow semi-bold&quot;&gt;&lt;b&gt;Bureau TC 002&lt;/b&gt;&lt;/font&gt;&lt;div&gt;&lt;font face=&quot;Barlow Light&quot; data-font-src=&quot;https://fonts.googleapis.com/css2?family=Barlow:wght@300&amp;amp;display=swap&quot;&gt;&lt;br&gt;&lt;/font&gt;&lt;/div&gt;&lt;div&gt;&lt;font face=&quot;Barlow Light&quot; data-font-src=&quot;https://fonts.googleapis.com/css2?family=Barlow:wght@300&amp;amp;display=swap&quot; style=&quot;font-size: 25px;&quot;&gt;Cédric ROLLO&lt;/font&gt;&lt;/div&gt;" style="text;html=1;align=left;verticalAlign=middle;resizable=0;points=[];autosize=1;strokeColor=none;fillColor=none;fontFamily=Barlow semi-bold;fontSource=https%3A%2F%2Ffonts.googleapis.com%2Fcss2%3Ffamily%3DBarlow%3Awght%40600;fontSize=27;fontStyle=0;labelPosition=center;verticalLabelPosition=middle;fontColor=#4B4B4B;" vertex="1" parent="1">
          <mxGeometry x="72" y="36" width="198" height="117" as="geometry" />
        </mxCell>
        <mxCell id="OwIQeiL42ccPH_tx5tmu-7" value="" style="group" vertex="1" connectable="0" parent="1">
          <mxGeometry x="72" y="306" width="280" height="40" as="geometry" />
        </mxCell>
        <mxCell id="OwIQeiL42ccPH_tx5tmu-4" value="Toulouse - Campus Ponsan - Bât. E" style="text;align=left;verticalAlign=middle;resizable=0;points=[];autosize=1;strokeColor=none;fillColor=none;fontSize=14;fontFamily=Nilland extra-bold;fontSource=https%3A%2F%2Ffonts.cdnfonts.com%2Fcss%2Fnilland%3Fstyles%3D11181;html=1;fontColor=#4B4B4B;" vertex="1" parent="OwIQeiL42ccPH_tx5tmu-7">
          <mxGeometry x="60" y="10" width="220" height="30" as="geometry" />
        </mxCell>
        <mxCell id="OwIQeiL42ccPH_tx5tmu-5" value="" style="shape=image;verticalLabelPosition=bottom;labelBackgroundColor=default;verticalAlign=top;aspect=fixed;imageAspect=0;image=data:image/png,iVBORw0KGgoAAAANSUhEUgAAA0IAAAIfCAMAAABq55zbAAAAAXNSR0IB2cksfwAAAAlwSFlzAAALEwAACxMBAJqcGAAAAHhQTFRFAAAAAy5aAy5a5AYh5AYhAy5aAy5a5AYh5AYhAy5aAy5aAy5a5AYh5AYh5AYhAy5aAy5a5AYh5AYhAy5aAy5a5AYh5AYhAy5a5AYhAy5aAy5a5AYhAy5a5AYhAy5a5AYh5AYhiDZJajhTMzRbejZNWzdVLDNaSTdZVBe5zAAAACh0Uk5TAEAgQCCA8KD//+BQEIDwwDBg4KAQMMBwUJBgkNBwsLDQceB0xGTgsFJfWvYAABxqSURBVHic7d1rVxtHtoDhai6KLWzAQT6JSTJfzlrn//+myXUm9sSQCSTGio6AtoFWl9R7d9129ft+yMXGaoF5kLpVu9Q4IhpRk/sOENkOQkSjghDRqCBENCoIEY0KQkSjghDRqCBENCoIEY0KQkSjghDRqEoh1DR/574LedtvPua+C6SqFEKHzeom933I2MF+c7PMfSdIVTGEDtYPRH/kvheZetE0HxyEjFYQIedmzfvc9yNHr5qr9T8hZLSiCDk3b95mviPJe91c3v0bQkYrjJBbvvpX3juSuBc3n/4GIGS00git79H1KucdSdvL9UlQG4SMVh6h9SnR7xO5wP31h6uH/4GQ0Uok5NzpzQROiQ6+vHz8vxAyWpmE3HLxU6Y7kqoXJ++e/gKEjFYoIefOfqz6lOi7iw+dX4GQ0Yol5NzrH6o9Jdo/udr4NQgZrWBCzn08qfKU6OCbvgv3EDJa0YRcc1rfKdGLpn8xIISMVjYh52aXlZ0SvVp2T4LaIGS00glVtuZn/+zS91sQMlr5hNyymjGIg/0tX24IGc0AIVfJGMTdSIM/CBnNBKEqxiCerObpCUJGM0LI/JqfTyMN/iBkNDOETI9BPIw0+IOQ0ewQMjwG8XLrSVAbhIxmiZDRMYi+1Tw9QchotggZXPPTGWnwByGjWSNkbAxiY6TBH4SMZo6QqTGIzZEGfxAymkFCZsYg9r/7RfDREDKaSUJuuSr/lKh/pMEfhIxmk1D5YxC+kQZ/EDKaVUKFr/m536BUFISMZpdQwWMQW0Ya/EHIaJYJFToGsXWkwR+EjGaaUJFjEINW8/QEIaMZJ1Tcmp9dIw3+IGQ084SKGoPYPdLgD0JGq4BQMWMQQ0Ya/EHIaDUQKmQMQrKapycIGa0OQgWs+Rk40uAPQkarhVDmMYjBIw3+IGS0eghlHIOQr+bpCUJGq4hQtq1PvRuUioKQ0aoi5Nz8t+SnRLKRBn8QMlplhJKPQUhHGvxByGi1EUq75mfHBqWiIGS0+gglHINQjDT4g5DRaiSUaAxCNdLgD0JGq5NQgjGIcat5eoKQ0SolFH3Nj3akwR+EjFYtoahjEPqRBn8QMlrFhKKNQYwZafAHIaNVTSjKGIRgg1JREDJa3YQibH06cqTBH4SMVjuhwGMQo0ca/EHIaPUTCjgGEW41T08QMtoUCAXa+jTISIM/CBltEoSCjEGEGWnwByGjTYTQ6DGIUCMN/iBktMkQGrXmR7lBqSgIGW06hPRjECFHGvxByGhTIqQcgwg60uAPQkabFiHFGESc1Tw9QchoUyMkXPMTfKTBH4SMNjlCojGI8CMN/iBktAkSGjwGEWOkwR+EjDZJQoPGIAJsUCoKQkabKKGdW5/GGmnwByGjTZXQjjGIaCMN/iBktOkS2jIGEX81T08QMtqUCXm2Po060uAPQkabNKG+MYjIIw3+IGS0iRPaGIOIPdLgD0JGmzyhJ2t+Am9QKgpCRoPQwxhEipEGfxAyGoRuux2DSDPS4A9CRoPQfbMvL1Ku5ukJQkaDUNubXG/U+ikIGQ1CbRAiXRBqgxDpglAbhEgXhNogRLog1AYh0gWhNgiRLgi1QYh0QagNQqQLQm0QIl0QaoMQ6YJQG4RIF4TaIES6INQGIdIFoTYIkS4ItUGIdEGoDUKkC0JtECJdEGqDEOmCUBuESBeE2iBEuiDUBiHSBaE2CJEuCLVBiHRBqA1CpAtCbRAiXRBqgxDpglAbhEgXhNogRLog1AYh0gWhNgiRLgi1QYh0QagNQqQLQm0QIl0QaoMQ6YJQG4RIF4TaIES6INQGIdIFoTYIkS4ItUGIdEGoDUKkC0JtECJdEGqDEOmCUBuESBeE2iBEuiDUBiHSBaE2CJEuCLVBiHRBqA1CpAtCbRAiXRBqgxDpglAbhEgXhNogRLog1AYh0gWhNgiRLgi1QYh0QagNQqQLQm0QIl0QaoMQ6YJQG4RIF4TaIES6INQGIdIFoTYIkS4ItUGIdEGoDUKkC0JtECJdEGqDEOmCUBuESBeE2iBEuiDUBiHSBaE2CJEuCLVBiHRBqA1CpAtCbRAiXaUQOrrZz3sHchOaX37MewdIWSmE3GJ1lfX4eQnNTr7PeXgaUTGEnDtdfch49KyEzi7+m/HoNKqCCK2fza1W2Y6dkdDx6tdsx6bRFUXILS6aXKdE2QjNZ79kOjIFqSxCzu29ynRKlInQbPV7luNSsEojtL5Hx1lOifIQWh1yEmS98gg5d/42w7O5HISO3/FakP1KJLQ+JUr/Qmt6QvPVb6kPSREqktD6lOjb1BepUhOarVY8h6uiQgmt79g375IeLzGhr35kMUIlFUto/V32W8pToqSEvv6ek6BqKpiQWxy+T3ewhIRm+5wEVVTJhNanRC+TXeBOR4jVPHVVNqGEa35SETr+DydBdVU6IecO06z5SUNofsFJUG2VTyjRGEQKQow01JgBQmnGIBIQYjVPlZkg5Nz5+9inRNEJMdJQaUYIxR+DiEyIkYZqs0Io+hhEVEKMNFScHUKR1/zEJLRaciG73iwRijoGEY8QIw11Z4tQxDGIWIQYaag9Y4TijUFEInTISEPtmSO0vsvPY1zgjkKIkYYJZJBQnDGICIQYaZhEJgnFGIMITojVPBPJJqEIa35CE2KkYSpZJRR8DCIsIUYappNdQoHHIEISYqRhSlkmFHQMIhwhVvNMK9OEQm59GowQIw0TyzihcGMQgQgx0jC5zBMKNQYRhBAjDRPMPqFAa34CEGKD0klWA6EgYxDjCTHSMM3qIBRgDGIsIVbzTLVaCI1e8zOOEBuUTrdqCI3d+nQUIUYaJlxFhMaNQYwgxEjDpKuK0JgxCDUhVvNMvMoI6df8KAkx0jD5aiOkHoPQEWKkgeojpByD0BBipIHqJKQag5ATYjUP3VYnIcXWp1JCjDTQfZUSko9BCAkx0kBt1RKSjkGICDHSQJ+rmJBs61MBITYopUfVTEg0BjGYECMN9KS6CQnGIIYSYjUPPa12QoPX/AwjxEgDdauf0MAxiCGEGGmgzSZAaNgYxABCjDRQT5MgNGQMYichVvNQbxMhtHvNzw5C40YaFu/e3F0a/PLfJ8H306fMTYbQrjGIrYTGjDTsvf7il8d6Z1dHMKqp6RDaMQaxjdCIkYbzP3qO2dws/9beIJXWlAhtHYPwE9Kv5tmyS+T8NxBV0rQIbfmm9hEaMdKwfWOu05u32humkpoYIf8YRD+hESMNO6+kLw//0N42FdTkCPnGIHoJjRhpGLI35Lzhgch+EyTU/+3dQ+j4nf5C9tmgkb+z/3JxznyTJNQ3BrFBaMxIw+LZwMWtyzmGrDdNQj1jEF1CY1bzDBa07gsMGW+qhDbW/DwlNGqkQSKIxyHzTZdQZwziMaGRIw0nol0bzv7kmoLppkzoyRjEA6GxIw2HgnHz217/c9ThKHOTJvT4xZvPhMZuUNo8E98JXh+y3MQJPaz5aQmNHmlYXIm3Ul0e81TOcJMn9GkM4o5QgHdpkD6Nu20++m0uKV8Qascg1oRCvEvD4lLz7ixc2TYchG47XX1481OQDUo1D0LOzS7GH5ky1RLacxNfe/+/zUWIDUp1D0LO/TXxL7/lWkLNs0mvvX/RNGF2mT9XXg/nbMhunwm55at/5b0r+fr6w5U7DELoH8qHsuWYd1qmrD0QWv/jWv9uv4Z73Vyu/xmE0EL9Cg+vDZntMaH1d9MPk3tO/uLm/ksQhNCR+svHMzmzPSXk3MeTaZ0SfXfRPoUKQuiN+uJ0o3yXZcpel5BbLrTvHm+w/ZPP37lBCMkWmD7paFo/uipqg5BzZz9O5JTo4MvLh/8JQui5/o/+OZEven31EJrIDk0vTp6cfoQgpL+a4NzxZK+HWq+XkFuuqj8letW5jhyCkHyR9kMfb8Yfn3LUT2j9C03VV1n3v+vuDpeb0OnP449POfIRcm7WVLv28eCbzWdNuQmxTM5qfkLVbnP2oul7zgQh0rWN0PqUqMIn6K/6X4KBEOnaSqjCNT/7Z5f9v5GbEOdCVttBaP3T8feKLnB/Ws3TU25CXJGz2k5CNb0FwcvGv3ogBKHTv/R/FkJWG0ColjGI25EGf7lXJ7BU22pDCFWx5ud+pMFfEELf6tdbs32C1YYRMj8G0VnN01MQQsPez6G36wCHpxwNJWR7DOLzSIO/IIS0c99c0zbccEKuOTU6BvFopMFfEEJ7X2j/JFcTzCYgtP5ReWnwlOjJSIO/MHsnqE+GOBUym4iQwTGI/tU8PYUhpH0mx9Cq3YSErK356Y40+AtDSLuPHNNCdpMSMjUGsTnS4C8MIeXuCWxMbzg5ITNjEH0jDf4CEdo70DwMcTHBcBpCJsYgXjRbVvP0FIiQalNtHoQyd3r3ksKJ7pFBR6j8NT+ekQZ/oQgp3l+IM6FoLT5fIf2f/3z6r/mn/3jZuXyqfG1OSajwMYhdq3l6CkVIsR3j2Q+BDk1Pkj4hSE2o4DGILSMN/oIREq/y4T2/I1U+oVLHILaNNPgLR2jxTPb66iujiz6KzwKhErc+3T7S4C8cIXd6Jbkqx7hqrEwQKm4MYuBqnp4CEhJ9NdmPPlpGCBU1BrF7pMFfSELu/O3QxyEExcsMoXK2Ph0w0uAvKKHBz+W4nB0xO4QKGYMYNNLgLywht7gZwHl5U9Sz4NqyRKiAMQjZap6eAhMa8hf4+qqMR+9as0Uo85qfwSMN/oITcqerrQ9EhpbrGs0aoZxjEMNHGvyFJ+Tc0cr72FzMCWTFmSOU7eeqZKTBXwxCzp3/0Yu7ebkEUPQMEsoyBnGwr1jN01McQs7tvT7sXLduTn7hKkKKTBJKvuZHOtLgLxYhd7tc+OD4o7vedzN38vPsupiX0WrPKKG0YxDa1Tw9RSREebJKKOEYhGKkwR+EqssuoURjEKqRBn8Qqi7LhFJsfaobafAHoeqyTSj2GMTI1Tw9Qai6jBOKOgahH2nwB6HqMk8o2tanY0Ya/EGouiogFGcVy6iRBn8Qqq4aCEUYgwizmqcnCFVXHYQCr/kZPdLgD0LVVQuhgGMQAUYa/EGouuohFGoMQrxBqSgIVVdFhIKMQeyfhb+Q/TgIVVdVhEav+Qk10uAPQtVVGaFxYxChV/P0BKHqqo6Qfgwi4EiDPwhVV32ElGt+go40+INQddVISLH1aeCRBn8Qqq46CUnHICKt5ukJQtVVKyHJGET4kQZ/EKquagkN3vo0xkiDPwhVV8WEBo1BxBlp8Aeh6qqa0O4xiBAblIqCUHXVTWjHmp9oIw3+IFRdtRPaMgYRcaTBH4Sqq35CnjGIcBuUioJQdU2BUN8YRNyRBn8Qqq5JENrY+jT2SIM/CFXXRAg9GYNItpqnJwhV12QIPYxBJBhp8CcitDf0Db2H91qwT0sj/N4Y0DLofmWHwo//KF9+POBrMBd+Ow3fV+DJB5ZA6H7NT5KRBn8iQhG+XJIfgdIfrwP6M+i+mc+FH/9RvjNAhK/B8K4f/08RhJw7e36R6ySoDUIBg1CGvvtn5jsAoYBBKEMQgpAoCHWDEIREQagbhCAkCkLdIAQhURDqBiEIiYJQNwhBSBSEukEIQqIg1A1CEBIFoW4QgpAoCHWDEIREQagbhCAkCkLdIAQhURDqBiEIiYJQNwhBSBSEukEIQqIg1A1CEBIFoW4QgpAoCHWDEIREQagbhCAkCkLdIAQhURDqBiEIiYJQNwhBSBSEukEIQqIg1A1CEBIFoW4QgpAoCHWDEIREQagbhCAkCkLdIAQhURDqBiEIiYJQNwhBSBSEukEIQqIg1A1CEBIFoW4QgpAoCHWDEIREQagbhCAkCkLdIAQhURDqBiEIiYJQNwhBSBSEukEIQqIg1A1CEBIFoW4QgpAoCHWDEIREQaibLUIDOvkg+3gJod2J/z7NERqQVJnyrwBCbRAKGIQyBCEIhQ5CaYNQwCCUIQhBKHQQShuEAgahDEEIQqGDUNogFDAIZQhCEAodhNIGoYBBKEMQglDoIJQ2CAUMQhmCEIRCB6G0QShgEMoQhCAUOgilDUIBg1CGIASh0EEobRAKGIQyBCEIhQ5CaYNQwCCUIQhBKHQQShuEAgahDEEIQqGDUNogFDAIZQhCEAodhNIGoYBBKEMQglDoIJQ2CAUMQhmCEIRCB6G0QShgEMoQhCAUurSE9p4F/RLKy01oNv8l7A1CSFANhNziotlX3UCgMhNaHf438C1CSFAVhNYPRN/+qrqFMGUldLwK/6lDSFAlhNb//c071W2EKCOh+Szwc7i7ICSoGkLOnb/N9WwuG6HZahX6OdxdEBJUEaH1KVGmd4HNRWi1/BjnhiEkqCZC61Oil8K/+zDlIXT8bhnrpiEkqC5C6196nuECdw5Cs/3f4t04hATVRsi5r35LfkqUgdBhnJOgNggJqo+QW6yuVLemLzmhr36MdBLUBiFBFRJy7nSV9pQoMaGvv492EtQGIUFVEnLuaJXylCgpodnJ99GPASFBlRJa34WEa35SEjq7iHkS1AYhQdUScnuvkp0SpSN0/J+4J0FtEBJUL6H1bx8nOiVKRSjOap6eICSoZkLOnb9PckqUhtBsFXgqyB+EBNVNKNGanySEwo80+IOQoMoJpRmDSEAoxkiDPwgJqp5QijGI6ITmq4ireXqCkKAJEIq/5icyoVgjDf4gJGgShNzi8L3qAAOLSyjaSIM/CAmaBqHIYxAxCcVfzdMThARNhVDUMYh4hKKONPiDkKDpEIq45icaobgjDf4gJGhKhKKNQUQiFHukwR+EBE2KUKwxiCiE5hcZToLaICRoYoTijEFEIJRipMEfhARNjlCMrU/DE0oy0uAPQoKmRyjCGERoQmlX8/QEIUFTJBR8DCIsoWQjDf4gJGiahAJvfRqSUMKRBn8QEjRVQkHHIAISSjnS4A9CgiZLKOQYRDBCETcoFQUhQRMmFG7NTyBCqUca/EFI0KQJhRqDCEIo/UiDPwgJmjihMGMQIQjlW83TE4QETZ1QkDGI8YSyjDT4g5AgCAVY8zOWUKaRBn8QEgSh20aOQYwklGukwR+EBEHornFjEKMIJdqgVBSEBEGobcwYxAhCOUca/EFIEIQ+p9/6VE0o70iDPwgJgtBD6jEILaEyVvP0BCFBEHqccgxCRyj7SIM/CAmCUOcmNVufaggVMNLgD0KCINRNMQYhJ1TESIM/CAmC0EbyMQgxoQwblIqCkCAI9SRd8yMkVMpIgz8ICYJQ/y2LxiBEhMoZafAHIUEQ8iQZg5AQKm81T08QEgQhX4IxiOGEihpp8AchQRDyN3jNz1BChY00+IOQIAhta+AYxDBCpa7m6QlCgiC0vUFjEIMIZd6gVBSEBEFoR0PGIAYQKnGkwR+EBEFo91F2bn26k1CZIw3+ICQIQgPaNQaxg1Dhq3l6gpAgCA1px5qf7YSKHWnwByFBEBrW1q1PtxEqeKTBH4QEQWjwwfxjEH5CRY80+IOQIAgNzzsG4SNU0galoiAkCEKCfGt+PIRKH2nwByFBEBLVPwbRS6j8kQZ/EBIEIekxe8YgeggVt0GpKAgJgpC4zTGITUImRhr8QUgQhORtrPnpEjIy0uAPQoIgpKkzBvGUkLXVPD1BSBCEdD0Zg3hMyNBIgz8ICYKQtkdjEI8IWRpp8AchQRBS97D16WdCtkYa/EFIEIRG9GkMoiVkdDVPTxASBKFR3a/5uSNkb6TBH4QEQWhcd2MQt4QMjjT4g5AgCI1t79tfv/unyZEGfxASBKHxNf/3b8ureXqCkCAI0WYQEgQh2mzKhM6k79IGIdpsuoQWN+J3rYYQbTZZQotn8jc5hBBtNlVCpx8UtwQh2myihI5uNO/4DiHabJqEpN+1bRCizaZIaDFXvjoOIdpsgoRUp0F3QYg2mx6hry7VfxRCtNnUCEnf4v1JEKLNjBF69dO4A3q3qR0UhGgzY4TGfROPeggafXRfELKdMUJz+ZKChza3BRQGIdosL6G9L4R/YMThT1+M4XcXhGizvITE4wbuWnmgIW+kuzMI0WbWCO39oTrO6Odwd0GINrNGSHUy9GQ3zRFBiDazRmh5/Fb6R3a/j/vQIESbZSYkPbz8laFwgCBEfZkjJHsYCgkIQtRXZkLi7QucO/158Iee742+jv0kCNFmmQlpBncGPpVbXBwG3e7HQYj6ykzoXLMt3xBDR2cRdswsg9DQ18b2nl6HhFCkMhMSr/C56/hf23//9Pm7EC8DbWSF0OnNhzcXHzofCKFIZSYkv6p91+sf/vb+3tHxRegncJ8qn9Atnr/f9X4ghCIlJbTc+T3fvJfc3lz57T5f9h2mOZiHvAK3cfOHuz7iSDGMISZ01HdN8ime+yCUIvlV5V3JpuL+oT5laU4urx8eixp3cPw87PU3TZrHKTGhzle4D899EEpRbkLKvXQ+df+geB3lzEdTEkKfD9K8+XV+s+XLDaEU5Saku55QbEkINVc78dwHoRTlJqS8nlBqSQgNDkIpyk4o/B3ImYZQvAdiCKUoO6F4P4NzBKHplZ3Q6V+h70DOIDS9shNSvzJUZBpCC90g7oAglKL8hN6IXootPNX6hWhXVCCUovyEqnompyL0bayXhCGUovyEqnompyIU7aIkhFJUAKGarsmpCEX7AkAoRQUQEu/HWHAqQqqhqSFBKEUFEBqx1LS4VISinQ1CKEUlEKponZxuoijWJTkIpagEQhUt8tERivX5QyhFRRCq52FIRyjW9QQIpagIQvU8DOkIHfnH2EcFoRSVQaial1eVuytEOhmCUIrKIFTNKh8loUjXJCGUokIILS6Lmd0elZJQpFeGIJSiQghFOx1InJJQpMXaEEpRKYQqeX1Vu9NcnM8eQikqhtDiqobVplpCcS7rQyhFxRCq46qcer/TKMvVIZSicgjFW22ZMDWhKJ88hFJUEKEarmzrd92O8TAEoRSVREjzhl2FpScU42wIQikK/5N/BCH7l+VGvPdDhM8dQikKv8JxDKHFs5Q7y8/Cr8wbQSjCq8sQSlFZhNxiley53NmPq/BL08a8A1H4V5chlKLCCCU7H2pOf4qxunPUm3gF/9QhlKLiCCUxtFyd3L7NVWGEgu+GBaEUlUcowY4+8+b+feJKIxR6hQaEUhT+WupoQu78bdRl2w9v1FoaIXd6FfQzh1CKSiTkTj/EWy83u3y47eIIBTYEoRQVScgt5pFeIHoMqERCYQ1BKEVlEnLu6CbCk7mngIokFNQQhFJUKqEIrxDNl92VGCUScnvnwa7LQShF4XfjDURo/Xf+TcBrvGc3y7cbv1gkoYDPYiGUpODfRsEIOXf+PsxtLc+ue5cClkko3GV9CCWpZEJrRHujH4mWL//07UxQKiF3+iLIAzCEklQ2ofXf/Jdjzomak8stO3sUS2j9QNSMvqowO3jiEEKxKp3Q+txg9oduSfXrv/7aPspRMCG390r/o+Ps+vJj0120CqFYnYS+wSbC7OlidvCL6Kfy8uufP+6mHPxzd0c/hbutvVe/ix+JzvZ+nh32/wVAaPKdfvHF2yEPcM3h1ey6jl3pFvuHg8+JtuC5D0K0bvHuYHF144F09vvB5ayKrbQetff6z13PYnfiuQ9C9NDinZs//sb6uH5OZn/rEl+L6w/zfkbNYhCe9oPD3SMie+2t1o+/7rOk9bPV1z/LHnAhRHTb4vbsSPNsFUJEo4IQ0aggRDQqCBGNCkJEo4IQ0aggRDSq/wfwy7vjgGM9kAAAAABJRU5ErkJggg==;" vertex="1" parent="OwIQeiL42ccPH_tx5tmu-7">
          <mxGeometry width="46.49" height="30.27" as="geometry" />
        </mxCell>
        <mxCell id="OwIQeiL42ccPH_tx5tmu-8" value="&lt;b style=&quot;color: rgb(75, 75, 75); font-family: &amp;quot;Barlow Light&amp;quot;; font-size: 25px; text-wrap-mode: nowrap;&quot;&gt;Informaticien&lt;/b&gt;" style="text;html=1;align=left;verticalAlign=middle;whiteSpace=wrap;rounded=0;" vertex="1" parent="1">
          <mxGeometry x="72" y="234" width="162" height="52.15" as="geometry" />
        </mxCell>
      </root>
    </mxGraphModel>
  </diagram>
</mxfile>
